<?xml version="1.0" encoding="utf-8"?>
<!-- Generator: Adobe Illustrator 24.0.1, SVG Export Plug-In . SVG Version: 6.00 Build 0)  -->
<svg version="1.1" id="Layer_1" xmlns="http://www.w3.org/2000/svg" xmlns:xlink="http://www.w3.org/1999/xlink" x="0px" y="0px"
	 viewBox="0 0 725.9 231.12" style="enable-background:new 0 0 725.9 231.12;" xml:space="preserve">
<style type="text/css">
	.st0{fill:none;stroke:#7F3F98;stroke-width:5.1908;}
	.st1{fill:none;stroke:#F7941D;stroke-width:5.1908;}
	.st2{fill:none;stroke:#00A14B;stroke-width:5.1908;}
	.st3{fill:none;stroke:#ED1C24;stroke-width:5.1908;}
	.st4{fill:none;stroke:#00A14B;stroke-width:5.1908;stroke-miterlimit:10;}
	.st5{fill:none;stroke:#F7941D;stroke-width:5.1908;stroke-miterlimit:10;}
	.st6{fill:none;stroke:#662D91;stroke-width:5.1908;stroke-miterlimit:10;}
	.st7{fill:none;stroke:#ED1C24;stroke-width:5.1908;stroke-miterlimit:10;}
	.st8{fill:#58595B;}
</style>
<g>
	<g>
		<path class="st0" d="M167.22,132.48l11.72-17.86c15.94,10.56,33.23,14.98,50.91,14.98c28.62,0,37.65-6.72,37.65-22.09
			c0-15.37-14.41-18.25-38.04-21.9c-34.38-5.38-54.55-11.33-54.55-41.3c0-29.77,18.25-40.92,55.32-40.92
			c25.55,0,42.45,5.95,53.59,13.45l-12.49,19.02c-9.61-6.34-25.55-10.95-41.3-10.95c-23.82,0-32.08,5.57-32.08,18.83
			c0,14.41,13.25,17.1,37.27,20.94c32.66,5.19,55.32,10.37,55.32,41.68c0,28.62-16.9,43.61-60.12,43.61
			C205.64,149.96,184.31,144.39,167.22,132.48z"/>
		<path class="st1" d="M348.55,27.98h-51.29V5.7h126.01v22.28h-51.29v120.06h-23.44V27.98z"/>
		<path class="st2" d="M442.67,5.7h100.46v22.28h-77.22v35.73h75.3V85.8h-75.3v40.34h77.99v21.9H442.67V5.7z"/>
		<path class="st3" d="M570.03,5.7h30.35L645.52,115L690.66,5.7h29.97v142.34h-22.86V44.69l-43.03,103.35h-19.21L592.5,44.88v103.15
			h-22.47V5.7z"/>
	</g>
	<g>
		<polygon class="st4" points="112.6,82.75 79.97,79.46 83.39,111.96 88.83,106.51 128.87,146.55 147.11,128.31 107.07,88.27 		"/>
		<polygon class="st5" points="83.59,38.19 80.31,70.81 112.8,67.4 107.35,61.95 147.39,21.91 129.15,3.67 89.11,43.71 		"/>
		<polygon class="st6" points="38.47,67.47 71.09,70.76 67.68,38.26 62.23,43.71 22.19,3.67 3.95,21.91 43.99,61.95 		"/>
		<polygon class="st7" points="67.47,112.03 70.76,79.41 38.26,82.82 43.71,88.27 3.67,128.31 21.91,146.55 61.95,106.51 		"/>
	</g>
	<g>
		<path class="st8" d="M6.32,211.61c0-7.06,2.12-12.71,11.56-12.71c9.8,0,10.11,6.75,10.02,13.86H9.54
			c0.18,5.12,1.68,8.65,8.47,8.65c4.02,0,5.91-1.06,7.85-2.47l1.81,2.34c-2.43,1.85-5.16,3.04-9.66,3.04
			C8.21,224.32,6.32,218.72,6.32,211.61z M9.58,209.72h15.14c-0.22-4.32-0.53-7.81-6.93-7.81C11.66,201.91,9.94,205.04,9.58,209.72z
			"/>
		<path class="st8" d="M44.97,211.53c0-7.59,2.38-12.58,10.55-12.58c5.29,0,7.85,1.02,9.13,3.27v-12.62H68v34.11l-2.6,0.22
			l-0.4-3.13c-1.54,2.43-4.19,3.49-9.58,3.49C47.31,224.28,44.97,219.2,44.97,211.53z M64.65,211.53c0-7.15-2.34-9.44-8.61-9.44
			c-6.04,0-7.68,3.53-7.68,9.44c0,6,1.63,9.66,7.68,9.66C62.18,221.19,64.65,218.76,64.65,211.53z"/>
		<path class="st8" d="M87.37,213.82v-14.34h3.31v14.43c0,4.02,0,7.33,7.1,7.33c7.06,0,6.97-3.31,6.97-7.5v-14.25h3.26v14.21
			c0,6.62-0.84,10.59-10.24,10.59C88.34,224.28,87.37,220.31,87.37,213.82z"/>
		<path class="st8" d="M126.2,211.61c0-7.72,2.56-12.71,11.74-12.71c4.37,0,7.02,1.59,8.78,3.49l-2.43,2.29
			c-1.19-1.19-3.09-2.56-6.35-2.56c-6.4,0-8.38,3.49-8.38,9.58c0,6,1.9,9.58,8.38,9.58c2.78,0,4.68-0.88,6.53-2.56l2.25,2.12
			c-2.43,2.21-4.81,3.44-8.87,3.44C128.75,224.28,126.2,219.34,126.2,211.61z"/>
		<path class="st8" d="M162.91,217.04c0-6.93,3.88-9,16.24-9h1.46c-0.09-4.15-0.97-6-6.57-6c-3.09,0-5.74,1.1-7.28,2.12l-1.77-2.6
			c1.59-1.1,5.25-2.65,9.31-2.65c8.21,0,9.53,2.87,9.53,9.84v9.18c0,2.6,0.18,2.96,2.52,2.96v2.91c-0.22,0.09-0.66,0.09-1.32,0.09
			c-2.82,0-3.57-0.88-3.97-3.04c-1.5,2.29-4.1,3.44-9.58,3.44C164.63,224.28,162.91,221.15,162.91,217.04z M180.6,212.85v-1.76
			h-1.28c-10.59,0-13.19,1.15-13.19,5.74c0,2.91,1.32,4.59,5.83,4.59C178.09,221.41,180.6,218.76,180.6,212.85z"/>
		<path class="st8" d="M202.92,211.61c0-7.72,2.56-12.71,11.74-12.71c4.37,0,7.02,1.59,8.78,3.49l-2.43,2.29
			c-1.19-1.19-3.09-2.56-6.35-2.56c-6.4,0-8.38,3.49-8.38,9.58c0,6,1.9,9.58,8.38,9.58c2.78,0,4.68-0.88,6.53-2.56l2.25,2.12
			c-2.43,2.21-4.81,3.44-8.87,3.44C205.48,224.28,202.92,219.34,202.92,211.61z"/>
		<path class="st8" d="M241.97,191.49h3.35v4.77h-3.35V191.49z M241.97,199.48h3.31v24.36h-3.31V199.48z"/>
		<path class="st8" d="M263.86,211.61c0-8.38,3.31-12.71,11.74-12.71s11.78,4.32,11.78,12.71s-3.35,12.71-11.78,12.71
			S263.86,220,263.86,211.61z M283.98,211.7c0-6.27-2.25-9.62-8.38-9.62s-8.38,3.35-8.38,9.62c0,6.22,2.25,9.58,8.38,9.58
			S283.98,217.92,283.98,211.7z M278.82,190.03h4.1l-7.59,6.88h-3.18L278.82,190.03z"/>
		<path class="st8" d="M305.68,199.65l2.65-0.18l0.31,2.56c1.06-1.68,3.4-3.13,9.05-3.13c7.86,0,8.78,4.06,8.78,10.06v14.87h-3.35
			v-14.3c0-4.32-0.4-7.33-6.4-7.33c-6.49,0-7.68,3.35-7.68,7.94v13.68h-3.35V199.65z"/>
		<path class="st8" d="M387.49,221.01c-1.68,2.34-4.1,3.27-9.22,3.27c-8.12,0-10.46-5.08-10.46-12.71c0-7.63,2.38-12.67,10.55-12.67
			c5.43,0,7.99,0.97,9.49,3.27l0.62-3.09l2.38,0.22v31.82h-3.35V221.01z M387.49,211.57c0-7.19-2.34-9.49-8.61-9.49
			c-6.04,0-7.68,3.53-7.68,9.49s1.63,9.62,7.68,9.62C385.02,221.19,387.49,218.76,387.49,211.57z"/>
		<path class="st8" d="M410.21,213.82v-14.34h3.31v14.43c0,4.02,0,7.33,7.1,7.33c7.06,0,6.97-3.31,6.97-7.5v-14.25h3.26v14.21
			c0,6.62-0.84,10.59-10.24,10.59C411.18,224.28,410.21,220.31,410.21,213.82z"/>
		<path class="st8" d="M449.04,211.61c0-7.06,2.12-12.71,11.56-12.71c9.8,0,10.11,6.75,10.02,13.86h-18.36
			c0.18,5.12,1.68,8.65,8.47,8.65c4.02,0,5.91-1.06,7.85-2.47l1.81,2.34c-2.43,1.85-5.16,3.04-9.66,3.04
			C450.93,224.32,449.04,218.72,449.04,211.61z M452.3,209.72h15.14c-0.22-4.32-0.53-7.81-6.93-7.81
			C454.38,201.91,452.65,205.04,452.3,209.72z"/>
		<path class="st8" d="M512.57,191.49h3.35v4.77h-3.35V191.49z M512.57,199.48h3.31v24.36h-3.31V199.48z"/>
		<path class="st8" d="M535.65,199.65l2.65-0.18l0.31,2.56c1.06-1.68,3.4-3.13,9.05-3.13c7.86,0,8.78,4.06,8.78,10.06v14.87h-3.35
			v-14.3c0-4.32-0.4-7.33-6.4-7.33c-6.49,0-7.68,3.35-7.68,7.94v13.68h-3.35V199.65z"/>
		<path class="st8" d="M573.77,221.54l1.76-2.6c2.87,1.85,6,2.43,8.56,2.43c4.41,0,6.44-0.84,6.44-4.28c0-2.74-1.77-3.27-6.44-4.19
			c-5.65-1.1-9.18-2.07-9.18-7.33c0-4.19,2.47-6.66,9.18-6.66c3.66,0,6.66,0.79,8.91,2.12l-1.59,2.74
			c-1.85-1.02-4.33-1.77-7.28-1.77c-4.59,0-5.91,1.37-5.91,3.57c0,2.69,1.76,3.35,6.04,4.19c5.91,1.19,9.49,1.99,9.49,7.19
			c0,5.56-3.09,7.33-9.84,7.33C580.69,224.28,577.08,223.7,573.77,221.54z"/>
		<path class="st8" d="M611.62,199.65l2.65-0.18l0.31,2.91c1.32-2.34,4.1-3.49,9.66-3.49c8.12,0,10.41,5.03,10.41,12.71
			c0,7.59-2.34,12.62-10.55,12.62c-5.29,0-7.85-1.02-9.13-3.27v10.15h-3.35V199.65z M631.26,211.7c0-5.96-1.59-9.62-7.68-9.62
			c-6.13,0-8.6,2.38-8.6,9.62c0,7.19,2.38,9.49,8.6,9.49C629.58,221.19,631.26,217.66,631.26,211.7z"/>
		<path class="st8" d="M653.19,191.49h3.35v4.77h-3.35V191.49z M653.19,199.48h3.31v24.36h-3.31V199.48z"/>
		<path class="st8" d="M676.26,199.65l2.65-0.18l0.35,3.26c0.93-1.9,3.93-3.53,8.43-3.57v3.35c-5.96,0-8.08,3.4-8.08,8.16v13.15
			h-3.35V199.65z"/>
		<path class="st8" d="M702.47,217.04c0-6.93,3.88-9,16.24-9h1.46c-0.09-4.15-0.97-6-6.57-6c-3.09,0-5.74,1.1-7.28,2.12l-1.77-2.6
			c1.59-1.1,5.25-2.65,9.31-2.65c8.21,0,9.53,2.87,9.53,9.84v9.18c0,2.6,0.18,2.96,2.52,2.96v2.91c-0.22,0.09-0.66,0.09-1.32,0.09
			c-2.82,0-3.57-0.88-3.97-3.04c-1.5,2.29-4.1,3.44-9.58,3.44C704.19,224.28,702.47,221.15,702.47,217.04z M720.17,212.85v-1.76
			h-1.28c-10.59,0-13.19,1.15-13.19,5.74c0,2.91,1.32,4.59,5.83,4.59C717.65,221.41,720.17,218.76,720.17,212.85z"/>
	</g>
</g>
</svg>
